<?xml version="1.0" encoding="UTF-8"?>
<svg id="Layer_3" data-name="Layer 3" xmlns="http://www.w3.org/2000/svg" viewBox="0 0 307.82 412.18">
  <defs>
    <style>
      .cls-1 {
        fill: #ed1558;
      }
    </style>
  </defs>
  <path class="cls-1" d="m250.53,0s-.44,14.15-6.79,28.93c-3.73,8.68-9.52,17.61-18.51,23.96-7.65,5.44-17.61,9-30.56,9h-89.29V7.81C119.52,3.11,134.54.42,150.16.05c1.25-.03,2.51-.05,3.76-.05h96.61Z"/>
  <path class="cls-1" d="m304.84,153.27v.65c0,21.77-5.62,42.47-15.75,61.23h-70.85c-6.42,0-12.22-.59-17.48-1.67-48.72-9.82-50.59-60.21-50.59-60.21h154.67Z"/>
  <path class="cls-1" d="m245.92,153.27c.02.21.02.44.02.65,0,22.71-8.25,43.5-21.9,59.56-.48.56-.96,1.11-1.46,1.67-16.84,18.9-41.36,30.78-68.65,30.78-50.82,0-92.01-41.21-92.01-92.01s41.19-92.03,92.01-92.03h40.76c12.95,0,22.91-3.56,30.56-9,8.98-6.35,14.78-15.28,18.51-23.96C218.47,10.71,187.45,0,153.92,0c-1.25,0-2.51.02-3.76.05-15.62.38-30.65,3.06-44.78,7.77C44.17,28.12,0,85.87,0,153.92c0,85,68.91,153.9,153.92,153.9,63.23,0,117.56-38.14,141.22-92.67,8.16-18.76,12.68-39.46,12.68-61.23v-.65h-61.91Z"/>
  <path class="cls-1" d="m295.44,370.53c-40.98,26.32-90.16,41.66-143.03,41.66s-101.81-15.26-142.74-41.48l34.76-50.67c31.68,20.02,69.24,31.59,109.48,31.59s76.36-11.13,107.65-30.45l33.88,49.35Z"/>
</svg>